# xmcd
#
# Track frame offsets: 
#        150
#        17915
#        36785
#        56297
#        73995
#        97345
#        112852
#        145990
#        169410
#        183902
#        196960
#        214207
#        237952
#
# Disc length: 3177 seconds
#
# Revision: 2
# Processed by: cddbd v1.5.2PL0 Copyright (c) Steve Scherf et al.
# Submitted via: ExactAudioCopy v0.99pb4
#
DISCID=c00c670d
DTITLE=The Trevor Finlay Band - Bumpy Roads
DYEAR=2001
DGENRE=Blues
TTITLE0=Mother Goose
TTITLE1=Midnight Ferry Ride
TTITLE2=Coffee
TTITLE3=Better Than Other Days
TTITLE4=Jambalaya
TTITLE5=Naturally Drawn
TTITLE6=Hey Bo Didley
TTITLE7=Bumpy Roads
TTITLE8=Hurry Up
TTITLE9=Heard Enough
TTITLE10=The Couple Next Door
TTITLE11=It Ain't Right
TTITLE12=na
EXTD=
EXTT0=
EXTT1=
EXTT2=
EXTT3=
EXTT4=
EXTT5=
EXTT6=
EXTT7=
EXTT8=
EXTT9=
EXTT10=
EXTT11=
EXTT12=
PLAYORDER=
